<svg xmlns="http://www.w3.org/2000/svg" width="18.67" height="22.375" viewBox="0 0 18.67 22.375">
  <g id="Icon_feather-map-pin" data-name="Icon feather-map-pin" transform="translate(-3.5 -0.5)">
    <path id="Caminho_762" data-name="Caminho 762" d="M12.835.5A9.346,9.346,0,0,1,22.17,9.835a10.656,10.656,0,0,1-1.424,5.095,19.671,19.671,0,0,1-3.017,4.044,28.184,28.184,0,0,1-4.339,3.733,1,1,0,0,1-1.109,0,28.184,28.184,0,0,1-4.339-3.733A19.671,19.671,0,0,1,4.924,14.93,10.656,10.656,0,0,1,3.5,9.835,9.346,9.346,0,0,1,12.835.5Zm0,20.144c1.8-1.339,7.335-5.87,7.335-10.809a7.335,7.335,0,1,0-14.67,0C5.5,14.774,11.038,19.3,12.835,20.644Z" transform="translate(0)" fill="#29323a"/>
    <path id="Caminho_763" data-name="Caminho 763" d="M16.278,9.5A3.778,3.778,0,1,1,12.5,13.278,3.783,3.783,0,0,1,16.278,9.5Zm0,5.557A1.778,1.778,0,1,0,14.5,13.278,1.78,1.78,0,0,0,16.278,15.057Z" transform="translate(-3.443 -3.443)" fill="#29323a"/>
  </g>
</svg>
