<svg xmlns="http://www.w3.org/2000/svg" width="20.962" height="21" viewBox="0 0 20.962 21">
  <path id="Icon_feather-phone" data-name="Icon feather-phone" d="M20.223,23c-.087,0-.175,0-.262-.012l-.018,0a19.965,19.965,0,0,1-8.661-3.08,19.72,19.72,0,0,1-6.021-6.021,19.964,19.964,0,0,1-3.08-8.7l0-.016A2.907,2.907,0,0,1,5.072,2h2.88A2.92,2.92,0,0,1,10.83,4.5v.009a11.257,11.257,0,0,0,.613,2.46,2.914,2.914,0,0,1-.655,3.064l0,0-.657.657A14.262,14.262,0,0,0,14.435,15l.657-.657,0,0a2.907,2.907,0,0,1,3.067-.654,11.253,11.253,0,0,0,2.458.612h.009a2.906,2.906,0,0,1,2.5,2.937v2.849A2.907,2.907,0,0,1,20.223,23Zm-.074-2c.025,0,.049,0,.074,0a.907.907,0,0,0,.907-.911V17.225q0-.012,0-.025a.907.907,0,0,0-.776-.92,13.262,13.262,0,0,1-2.893-.721.907.907,0,0,0-.958.2L15.3,16.969a1,1,0,0,1-1.2.162,16.262,16.262,0,0,1-6.1-6.1,1,1,0,0,1,.162-1.2L9.369,8.626a.909.909,0,0,0,.2-.955,13.265,13.265,0,0,1-.722-2.895A.911.911,0,0,0,7.952,4H5.073a.907.907,0,0,0-.9.982A17.954,17.954,0,0,0,6.942,12.8l0,.007a17.707,17.707,0,0,0,5.413,5.413l.008,0A17.957,17.957,0,0,0,20.149,21Z" transform="translate(-2.168 -2)" fill="#29323a"/>
</svg>
