<svg id="logo_harpon" data-name="logo harpon" xmlns="http://www.w3.org/2000/svg" xmlns:xlink="http://www.w3.org/1999/xlink" width="168" height="42.874" viewBox="0 0 168 42.874">
  <defs>
    <clipPath id="clip-path">
      <rect id="Retângulo_2" data-name="Retângulo 2" width="168" height="42.874" fill="none"/>
    </clipPath>
  </defs>
  <g id="Grupo_1" data-name="Grupo 1" clip-path="url(#clip-path)">
    <path id="Caminho_1" data-name="Caminho 1" d="M1807.922,101.818a2.943,2.943,0,0,1,.373-1.487,2.781,2.781,0,0,1,1.02-1.034,2.86,2.86,0,0,1,1.479-.381,2.89,2.89,0,0,1,1.494.381,2.728,2.728,0,0,1,1.012,1.034,2.985,2.985,0,0,1,.367,1.487,3.024,3.024,0,0,1-.367,1.494,2.712,2.712,0,0,1-1.012,1.042,2.888,2.888,0,0,1-1.494.381,2.858,2.858,0,0,1-1.479-.381,2.764,2.764,0,0,1-1.02-1.042,2.981,2.981,0,0,1-.373-1.494m.56,0a2.569,2.569,0,0,0,.287,1.228,2.14,2.14,0,0,0,.8.847,2.334,2.334,0,0,0,1.221.309,2.374,2.374,0,0,0,1.228-.309,2.127,2.127,0,0,0,.812-.847,2.784,2.784,0,0,0,0-2.464,2.144,2.144,0,0,0-.812-.84,2.378,2.378,0,0,0-1.228-.309,2.338,2.338,0,0,0-1.221.309,2.157,2.157,0,0,0-.8.84,2.559,2.559,0,0,0-.287,1.235m1.192-1.566v3.089h.675v-1.178h.675a1.076,1.076,0,0,0,.761-.266.9.9,0,0,0,.287-.7.883.883,0,0,0-.287-.69,1.1,1.1,0,0,0-.761-.258Zm1.307.618a.532.532,0,0,1,.295.079.309.309,0,0,1,.122.28.312.312,0,0,1-.122.273.5.5,0,0,1-.295.086h-.632v-.718Zm.4,2.471.8-.014-.962-1.408h-.733Z" transform="translate(-1645.668 -90.039)" fill="#e9f408"/>
    <path id="Caminho_2" data-name="Caminho 2" d="M392.435,74.034h4.79V85.949h13.284V74.034h4.75v28.178h-4.75V89.934H397.225v12.278h-4.79Z" transform="translate(-357.215 -67.39)" fill="#29323a"/>
    <path id="Caminho_3" data-name="Caminho 3" d="M699.509,181.012v-2.456a6.672,6.672,0,0,1-2.294,1.973,7.771,7.771,0,0,1-3.542.684,8.591,8.591,0,0,1-3.623-.7,5.432,5.432,0,0,1-2.355-1.973,5.3,5.3,0,0,1-.825-2.959,5.521,5.521,0,0,1,1.872-4.247,9.516,9.516,0,0,1,5.495-2.113l5.273-.564v-1.57a2.35,2.35,0,0,0-.845-1.751,3.88,3.88,0,0,0-2.7-.785,4.956,4.956,0,0,0-2.8.785,3.834,3.834,0,0,0-1.59,2.355l-3.945-1.449a7.163,7.163,0,0,1,3.039-4.146,9.885,9.885,0,0,1,5.535-1.489q3.945,0,5.917,1.972a6.817,6.817,0,0,1,1.972,5.032v13.4Zm0-8.856-4.831.6a4.315,4.315,0,0,0-2.295.865,2.119,2.119,0,0,0-.765,1.671,2.058,2.058,0,0,0,.745,1.59,2.943,2.943,0,0,0,2.033.664,5.946,5.946,0,0,0,2.8-.6,4,4,0,0,0,1.731-1.731,5.992,5.992,0,0,0,.584-2.778Z" transform="translate(-625.225 -146.19)" fill="#29323a"/>
    <path id="Caminho_4" data-name="Caminho 4" d="M918.759,161.877h4.468v2.5a7.252,7.252,0,0,1,1.892-1.671,6.986,6.986,0,0,1,2.355-.906,5.886,5.886,0,0,1,2.556.081v4.186a4.61,4.61,0,0,0-2.234-.181,5.13,5.13,0,0,0-2.194.886,5.241,5.241,0,0,0-1.651,1.972,6.839,6.839,0,0,0-.644,3.12V182h-4.549Z" transform="translate(-836.304 -147.182)" fill="#29323a"/>
    <path id="Caminho_5" data-name="Caminho 5" d="M1087.567,178.033l.523-.121v11.151h-4.549V160.885h4.428v2.5a8.3,8.3,0,0,1,2.616-1.972,8.66,8.66,0,0,1,3.9-.805,8.5,8.5,0,0,1,4.649,1.288,8.768,8.768,0,0,1,3.18,3.6,13.491,13.491,0,0,1,0,10.889,8.783,8.783,0,0,1-3.16,3.623,8.469,8.469,0,0,1-4.669,1.288,8.762,8.762,0,0,1-4.187-.946,7.7,7.7,0,0,1-2.737-2.315m11.03-7.085a6.728,6.728,0,0,0-1.469-4.509,4.716,4.716,0,0,0-3.764-1.731,4.963,4.963,0,0,0-2.637.725,5.271,5.271,0,0,0-1.912,2.093,8.392,8.392,0,0,0,0,6.823,5.239,5.239,0,0,0,1.912,2.113,4.963,4.963,0,0,0,2.637.725,4.714,4.714,0,0,0,3.764-1.731,6.727,6.727,0,0,0,1.469-4.509" transform="translate(-986.298 -146.19)" fill="#29323a"/>
    <path id="Caminho_6" data-name="Caminho 6" d="M1355.547,181.294a10.555,10.555,0,0,1-5.193-1.268,9.021,9.021,0,0,1-3.583-3.583,12.152,12.152,0,0,1,.04-10.969,9.189,9.189,0,0,1,3.663-3.6,11.309,11.309,0,0,1,10.406,0,9.543,9.543,0,0,1,3.683,3.583,11.6,11.6,0,0,1-.02,10.969,9.559,9.559,0,0,1-3.744,3.6,10.9,10.9,0,0,1-5.253,1.268m-.04-4.066a5.552,5.552,0,0,0,2.677-.684,5.309,5.309,0,0,0,2.073-2.073,7.04,7.04,0,0,0,.8-3.563,7.159,7.159,0,0,0-.765-3.482,5.094,5.094,0,0,0-2.013-2.073,5.523,5.523,0,0,0-2.7-.684,5.11,5.11,0,0,0-2.6.684,4.958,4.958,0,0,0-1.912,2.073,9.04,9.04,0,0,0-.02,7.045,4.87,4.87,0,0,0,1.872,2.073,4.994,4.994,0,0,0,2.576.684" transform="translate(-1224.731 -146.19)" fill="#29323a"/>
    <path id="Caminho_7" data-name="Caminho 7" d="M1613.255,160.885h4.106v1.972a8.829,8.829,0,0,1,2.717-1.65,7.438,7.438,0,0,1,3-.6,8.049,8.049,0,0,1,4.086.986,6.534,6.534,0,0,1,2.637,2.9,10.917,10.917,0,0,1,.926,4.77v11.754h-4.549V169.862a6.048,6.048,0,0,0-1.026-3.824,3.7,3.7,0,0,0-3.08-1.288,3.9,3.9,0,0,0-3.18,1.308,5.889,5.889,0,0,0-1.087,3.844v11.11h-4.549Z" transform="translate(-1468.472 -146.19)" fill="#29323a"/>
    <path id="Caminho_8" data-name="Caminho 8" d="M212.448,183.026l9.119-7.461v19.066l-9.115-.006Z" transform="translate(-193.381 -159.809)" fill="#e9f408"/>
    <path id="Caminho_9" data-name="Caminho 9" d="M0,8.3l9.119,7.461V0L0,.006Z" transform="translate(0 -0.001)" fill="#e9f408"/>
    <path id="Caminho_10" data-name="Caminho 10" d="M109.066,73.96l-7.461,9.119h19.066l-.006-9.115Z" transform="translate(-92.486 -67.322)" fill="#e9f408"/>
    <path id="Caminho_11" data-name="Caminho 11" d="M0,190.487l4.145,4.145H9.119V175.566H0Z" transform="translate(0 -159.809)" fill="#e9f408"/>
  </g>
</svg>
